<svg width="34" height="15" viewBox="0 0 34 15" fill="none" xmlns="http://www.w3.org/2000/svg">
<path d="M6.49656 0.6H0.296563V3.8H3.19656V14H6.49656V0.6ZM17.6552 2.98V0.6H8.13516V3.8H13.2352L10.5952 6.7V8.6H13.5552C14.4152 8.6 14.8152 9.14 14.8152 9.68C14.8152 10.24 14.3752 10.8 13.5552 10.8H8.13516V14H13.9752C16.2752 14 18.1152 12.28 18.1152 9.78C18.1152 7.44 16.4352 6.28 14.8152 6.06L17.6552 2.98ZM22.4308 6.96C24.2908 6.96 25.7308 5.5 25.7308 3.62C25.7308 1.8 24.2908 0.299999 22.4308 0.299999C20.5308 0.299999 19.0908 1.8 19.0908 3.62C19.0908 5.5 20.5308 6.96 22.4308 6.96ZM20.3908 14H22.7508L32.1508 0.6H29.7908L20.3908 14ZM22.4308 4.9C21.7308 4.9 21.1708 4.34 21.1708 3.62C21.1708 2.94 21.7308 2.36 22.4308 2.36C23.1308 2.36 23.7108 2.94 23.7108 3.62C23.7108 4.34 23.1308 4.9 22.4308 4.9ZM30.1508 14.3C32.0108 14.3 33.4508 12.84 33.4508 10.96C33.4508 9.14 32.0108 7.64 30.1508 7.64C28.2508 7.64 26.8108 9.14 26.8108 10.96C26.8108 12.84 28.2508 14.3 30.1508 14.3ZM30.1508 12.24C29.4508 12.24 28.8908 11.68 28.8908 10.96C28.8908 10.28 29.4508 9.7 30.1508 9.7C30.8508 9.7 31.4308 10.28 31.4308 10.96C31.4308 11.68 30.8508 12.24 30.1508 12.24Z" fill="#575757"/>
</svg>
